PathFileType	4	(X/Y/Z)	Patient4_TMGait_0pt3_01_right_02.trc.trc
DataRate	CameraRate	NumFrames	NumMarkers	Units	OrigDataRate	OrigDataStartFrame	OrigNumFrames
53.639846743295	53.639846743295	4	33	mm	53.639846743295	18	       141
Frame#	Time	Sacral			L.Shoulder			Chest			R.Shoulder			Neck			R.ASIS			L.ASIS			R.Thigh.Superior			R.Thigh.Lateral			R.Thigh.Inferior			R.Patella			L.Thigh.Superior			L.Thigh.Lateral			L.Thigh.Inferior			L.Patella			L.Shank.Superior			L.Shank.Lateral			L.Shank.Inferior			R.Shank.Superior			R.Shank.Lateral			R.Shank.Inferior			R.Heel			R.Midfoot.Superior			R.Midfoot.Lateral			R.Toe			L.Heel			L.Midfoot.Lateral			L.Midfoot.Superior			L.Toe			L.Elbow			L.Wrist			R.Elbow			R.Wrist			
		X1	Y1	Z1	X2	Y2	Z2	X3	Y3	Z3	X4	Y4	Z4	X5	Y5	Z5	X6	Y6	Z6	X7	Y7	Z7	X8	Y8	Z8	X9	Y9	Z9	X10	Y10	Z10	X11	Y11	Z11	X12	Y12	Z12	X13	Y13	Z13	X14	Y14	Z14	X15	Y15	Z15	X16	Y16	Z16	X17	Y17	Z17	X18	Y18	Z18	X19	Y19	Z19	X20	Y20	Z20	X21	Y21	Z21	X22	Y22	Z22	X23	Y23	Z23	X24	Y24	Z24	X25	Y25	Z25	X26	Y26	Z26	X27	Y27	Z27	X28	Y28	Z28	X29	Y29	Z29	X30	Y30	Z30	X31	Y31	Z31	X32	Y32	Z32	X33	Y33	Z33	

18	2.436928571429	797.934987399885	1002.735690859454	438.986341786278	1003.092767275136	1433.739635340866	275.936168718958	1073.737446092588	1368.528940150979	454.025798073859	960.252026853496	1443.482258156665	608.966028947806	960.346749124946	1497.803525874185	430.591235261509	1011.738455085533	951.473194715325	591.006548716059	1033.350744736554	960.783807089875	315.362505308862	1082.925135009028	766.002625148786	567.872601412511	1024.522097898747	647.861217105402	634.048861880169	1111.833334671398	604.043011687755	557.810541004335	1136.693243343780	517.980725685007	577.103603104152	1053.632650637054	737.321038503127	353.074345811518	955.371386229365	629.033470943497	284.694728547133	1020.451303079786	544.941781177513	356.574418744314	1010.383925417019	476.564298776506	366.447534268565	977.827135044339	407.241652007482	357.733886575283	879.503795624606	300.296766324765	308.252022222895	915.430925257840	186.712910831300	382.350944955816	1110.823048847364	429.715812457696	586.986110368919	1042.997452521347	322.504675488236	648.235010110375	1105.192761048267	229.301535150449	600.084509273125	995.608222272052	50.100464645514	567.949091543794	1161.577188304640	113.886674090576	616.473791167727	1076.718053721533	42.138100380371	644.390378079587	1282.210788827640	69.546067836456	647.223999912807	776.750321841441	38.148915339144	428.009465484804	846.524652353196	35.680856273910	343.792840049346	932.313484436254	95.508909681226	368.482073555443	1058.349324287586	42.182031967861	331.450017427556	1098.571027827417	1105.312276028508	144.828317516262	1352.916005474094	1064.774876917367	165.205323229483	815.472712609053	1125.173596860185	704.290719355788	809.458135702424	863.817257664882	721.043785280600	
19	2.455571428571	799.114851497176	1002.257733374489	440.447102394691	1004.760630782378	1433.215957318736	278.928238858341	1074.393812393487	1368.136518305690	457.420609122483	960.018571456485	1443.154969684003	611.745809740679	960.990426447578	1497.277396034338	433.485694139765	1011.946351083070	950.676826451641	593.729455575639	1035.122926152493	960.311277963359	318.128055107380	1081.217724779887	763.610191158915	571.980408835257	1019.989294868949	645.767482532590	636.740592862460	1107.877134289195	601.834810502070	561.411332808814	1131.439601204772	517.443525804310	579.209280608405	1052.129366185853	736.098359279166	355.207341857879	952.320309153343	629.253774032174	285.763841418858	1015.726793868120	544.149216894526	357.559169418989	1004.687819612071	476.096086811813	367.145085903571	972.365997368341	407.132137538981	358.209236302963	873.832458469313	300.431180631385	308.505325188585	909.737489750348	186.659636873422	382.446736309389	1109.028381955877	428.832900357012	589.055741028351	1044.903053059841	319.000346360629	650.265881332107	1110.337980462256	227.872599069461	601.727442364386	1006.064341921657	46.224392201655	569.566857869259	1171.011827310344	112.519153753263	616.980517054890	1087.770371896919	39.497692471210	645.558947083872	1292.900160991310	70.531642142758	647.163901727020	771.062021610947	38.051197795898	428.016641718912	840.812495355502	35.594780100186	343.789422333032	926.577189207590	95.468463605019	368.466616174530	1052.644841529482	42.198464855664	331.475317552557	1099.539799996116	1104.407696025008	148.190606851727	1354.051289538318	1066.610537512471	169.390030985658	813.404265361092	1125.364556679649	704.692058931857	809.732865248751	863.752319177569	720.940517647045	
20	2.474214285714	800.571169737099	1001.388966641383	442.329219802087	1006.078611763321	1432.449974369346	282.211495362992	1075.011434426310	1367.569782718965	461.008379547396	959.885822385544	1442.533066992589	614.881772705131	961.490223114762	1496.487448227088	436.732938553828	1012.610091445530	949.569990834598	596.588854353744	1037.107057438793	959.680015704667	321.062860565915	1080.304325398180	761.150993106447	575.950310689038	1016.453938200255	643.463206948065	639.088976504421	1105.060928730894	599.637803703528	564.688304322911	1127.025829311256	516.388274733923	580.967749497716	1051.207868934438	734.773698637901	357.306441970800	949.830255851119	629.298765848066	287.055152887745	1011.732044454076	543.234804590528	358.670886904914	999.781678966298	475.437728709253	368.004616167361	967.495331563899	406.835917628421	358.856395331634	868.543472873725	300.575847725660	308.903763786729	904.235254418149	186.512935604783	382.601765816974	1107.295678751728	427.452071276110	590.783425667991	1045.695866249385	315.900094796867	651.702957848167	1113.291913092284	226.351826680781	602.839481947238	1012.475375033162	43.852344198244	570.387235355966	1176.757321364739	110.974500482683	617.017471634216	1094.367256018595	37.825381259067	646.221170903354	1299.194872488438	70.170437348525	647.124988212809	765.373419082583	37.954073176698	428.028189095685	835.109136841428	35.510029796908	343.796298128713	920.849505363460	95.421010320116	368.472061605327	1046.942367359983	42.190581653458	331.500035866114	1100.038211588200	1103.188720998415	151.739549740986	1354.654354579680	1067.533886966955	173.659058531251	812.568208824362	1124.753661327877	705.737958835025	812.155233142235	862.896806458167	721.575395805428	
21	2.492857142857	802.288341533785	1000.213797023872	444.606775388624	1007.087552610362	1431.524807285564	285.786198546193	1075.605495259650	1366.894612344835	464.799293207781	959.840826787240	1441.674321347455	618.368596894787	961.855406539274	1495.501033442013	440.331863117115	1013.720844369546	948.244183929027	599.583082551718	1039.291505748628	958.939028127844	324.162689392972	1080.212577481625	758.728723480940	579.679100774168	1014.020227375931	641.076953393342	641.083311537088	1103.420670847516	597.531383133329	567.575730198070	1123.591361504546	514.910209484117	582.368623789092	1050.890996706787	733.374261003466	359.375525834656	947.940046069142	629.179377312562	288.593601092375	1008.535493772194	542.212229578608	359.933518813843	995.741144341833	474.587673791280	369.056234189652	963.270504591132	406.360039713637	359.699263461866	863.681216905271	300.756113592648	309.466886686375	898.947392438826	186.287206300778	382.821832136849	1105.769965764993	425.644925162226	592.141450335500	1045.596878435017	313.147948005385	652.613630404764	1114.311750154683	224.650071763640	603.416761104486	1015.130132382390	42.598816977743	570.509347711893	1179.138882971468	109.241084480339	616.635762387109	1096.888745348712	36.878505980156	646.450646473423	1301.566823759140	68.604716188333	647.088849558209	759.692347488212	37.884340602049	428.035395961831	829.425239050221	35.441767583978	343.813077029756	915.147124101215	95.375217018476	368.495224116695	1041.252125261399	42.146659011028	331.520745389463	1100.093753369139	1101.736391005316	155.470062017146	1354.760512994832	1067.607214388027	177.991564670857	812.921060328926	1123.414506025741	707.471455540579	816.539423092235	861.375646926223	723.053627248509	
